<?xml version="1.0" encoding="UTF-8" standalone="no"?>
<svg
   xmlns:dc="http://purl.org/dc/elements/1.1/"
   xmlns:cc="http://creativecommons.org/ns#"
   xmlns:rdf="http://www.w3.org/1999/02/22-rdf-syntax-ns#"
   xmlns:svg="http://www.w3.org/2000/svg"
   xmlns="http://www.w3.org/2000/svg"
   xmlns:sodipodi="http://sodipodi.sourceforge.net/DTD/sodipodi-0.dtd"
   xmlns:inkscape="http://www.inkscape.org/namespaces/inkscape"
   version="1.1"
   viewBox="-10 0 1000 1000"
   id="svg4"
   sodipodi:docname="logo.svg"
   inkscape:version="0.92.4 (5da689c313, 2019-01-14)"
   width="1000"
   height="1000">
  <metadata
     id="metadata10">
    <rdf:RDF>
      <cc:Work
         rdf:about="">
        <dc:format>image/svg+xml</dc:format>
        <dc:type
           rdf:resource="http://purl.org/dc/dcmitype/StillImage" />
        <dc:title></dc:title>
      </cc:Work>
    </rdf:RDF>
  </metadata>
  <defs
     id="defs8" />
  <sodipodi:namedview
     pagecolor="#ffffff"
     bordercolor="#666666"
     borderopacity="1"
     objecttolerance="10"
     gridtolerance="10"
     guidetolerance="10"
     inkscape:pageopacity="0"
     inkscape:pageshadow="2"
     inkscape:window-width="1920"
     inkscape:window-height="996"
     id="namedview6"
     showgrid="false"
     inkscape:zoom="0.236"
     inkscape:cx="-1105.0847"
     inkscape:cy="500"
     inkscape:window-x="-8"
     inkscape:window-y="-8"
     inkscape:window-maximized="1"
     inkscape:current-layer="svg4" />
  <path
     d="m 406,293 q 0,-25 14,-100 9,-46 9,-69 0,-12 -2,-23 Q 393,84 320,84 276,84 238.5,90 201,96 201,101 v 121 h 121 q 42,0 45,16 -19,73 -49,212 -20,91 -20,150 0,46 14,81 2,5 5,5 10,0 40,-20 34,-34 51,-34 2,0 3,1 -5,-16 -8,-34 h 247 q -12,156 -12,236 0,87 24,87 0,2 6,2 13,0 49,-10 36,-10 36,-12 V 181 H 541 q -16,17 -19,94 0,25 -1,50 -2,49 5.51562,52.1211 7.48438,2.87891 25.4844,2.87891 19,0 60,-3.5 41,-3.5 52,-3.5 13,0 13,3 0,36 -17,102 v 0 h -266 q 6,-92 12,-185 z m 6,343 q 0,-2 -1,-3 z"
     id="path2"
     style="fill:#bfccd6;fill-opacity:1"
     inkscape:connector-curvature="0" />
  <rect
     id="rect3710"
     width="915.05109"
     height="915.05109"
     x="32.474464"
     y="42.474464"
     style="fill:#bfccd6;stroke:#bfccd6;stroke-width:30;stroke-miterlimit:4;stroke-dasharray:none;stroke-opacity:1;fill-opacity:0.19607843"
     ry="269.38419" />
</svg>
